<?xml version="1.0" encoding="utf-8"?>
<!-- Generator: Adobe Illustrator 19.0.0, SVG Export Plug-In . SVG Version: 6.00 Build 0)  -->
<svg version="1.1" id="Layer_1" xmlns="http://www.w3.org/2000/svg" xmlns:xlink="http://www.w3.org/1999/xlink" x="0px" y="0px"
	 width="80px" height="80px" viewBox="0 0 80 80" style="enable-background:new 0 0 80 80;" xml:space="preserve">
<style type="text/css">
	.st0{fill:#E0E0E0;}
	.st1{fill:#BDBDBD;}
	.st2{display:none;}
	.st3{display:inline;fill:#E92E2F;}
	.st4{display:inline;}
	.st5{clip-path:url(#XMLID_65_);fill:none;stroke:#E92E2F;stroke-width:9.375000e-002;stroke-miterlimit:10;}
	.st6{display:inline;fill:none;stroke:#E92E2F;stroke-width:9.375000e-002;stroke-miterlimit:10;}
	.st7{display:inline;fill:#0774BB;}
	.st8{display:inline;fill:none;stroke:#0774BB;stroke-width:9.375000e-002;stroke-miterlimit:10;}
	.st9{clip-path:url(#XMLID_66_);fill:none;stroke:#E92E2F;stroke-width:9.375000e-002;stroke-miterlimit:10;}
	.st10{fill:none;stroke:#E92E2F;stroke-width:9.375000e-002;stroke-miterlimit:10;}
	.st11{fill:#E92E2F;}
	.st12{clip-path:url(#XMLID_67_);fill:none;stroke:#E92E2F;stroke-width:9.375000e-002;stroke-miterlimit:10;}
	.st13{fill:#0774BB;}
	.st14{fill:none;stroke:#0774BB;stroke-width:9.375000e-002;stroke-miterlimit:10;}
</style>
<circle id="XMLID_5_" class="st0" cx="40" cy="39.9" r="37"/>
<path id="XMLID_6_" class="st1" d="M40,3c20.4,0,37,16.5,37,37s-16.5,37-37,37"/>
<g id="XMLID_7_" class="st2">
	<path id="XMLID_45_" class="st3" d="M43.6,14.9c0.7,0.8,0.9,2,0.7,3c-0.2,1.2-0.9,2.2-1.6,3.1c-0.6,0.7-1.3,1.4-2,1.9
		c-0.9,0.7-1.7,1.4-2.2,2.4c-0.5,0.8-0.6,1.8-0.2,2.6c0.5,1.5,1.7,2.6,2.3,3.9c-0.7-0.6-1.4-1.3-2.1-2c-0.7-0.7-1.3-1.5-1.7-2.4
		c-0.3-0.6-0.4-1.4-0.2-2c0.2-0.7,0.7-1.2,1.2-1.8c1.4-1.4,3.1-2.4,4.4-3.8c0.7-0.8,1.4-1.7,1.6-2.7C43.9,16.5,43.8,15.7,43.6,14.9
		L43.6,14.9L43.6,14.9z"/>
	<g class="st4">
		<defs>
			<rect id="XMLID_43_" x="28.4" y="14.9" width="24.3" height="45.3"/>
		</defs>
		<clipPath id="XMLID_65_">
			<use xlink:href="#XMLID_43_"  style="overflow:visible;"/>
		</clipPath>
		<path id="XMLID_44_" class="st5" d="M43.6,14.9c0.7,0.8,0.9,2,0.7,3c-0.2,1.2-0.9,2.2-1.6,3.1c-0.6,0.7-1.3,1.4-2,1.9
			c-0.9,0.7-1.7,1.4-2.2,2.4c-0.5,0.8-0.6,1.8-0.2,2.6c0.5,1.5,1.7,2.6,2.3,3.9c-0.7-0.6-1.4-1.3-2.1-2c-0.7-0.7-1.3-1.5-1.7-2.4
			c-0.3-0.6-0.4-1.4-0.2-2c0.2-0.7,0.7-1.2,1.2-1.8c1.4-1.4,3.1-2.4,4.4-3.8c0.7-0.8,1.4-1.7,1.6-2.7C43.9,16.5,43.8,15.7,43.6,14.9
			L43.6,14.9L43.6,14.9z"/>
	</g>
	<path id="XMLID_42_" class="st3" d="M42.5,23.5c1.5-1.1,3.2-1.8,4.9-2.3c-1.4,0.9-2.8,1.7-4,2.8c-0.4,0.4-0.8,0.9-1,1.5
		c-0.1,0.4-0.1,0.9,0.1,1.3c0.3,0.7,0.9,1.3,1.3,2c0.3,0.6,0.4,1.3,0.1,1.9c-0.4,0.9-1.2,1.6-2,2.1c-0.1,0.1-0.2,0.2-0.3,0.2
		c0.5-0.5,1-1.2,1-1.9c0-0.6-0.3-1.1-0.7-1.5c-0.7-0.9-1.4-2-1.2-3.2C40.7,25.2,41.6,24.2,42.5,23.5L42.5,23.5L42.5,23.5z"/>
	<path id="XMLID_41_" class="st6" d="M42.5,23.5c1.5-1.1,3.2-1.8,4.9-2.3c-1.4,0.9-2.8,1.7-4,2.8c-0.4,0.4-0.8,0.9-1,1.5
		c-0.1,0.4-0.1,0.9,0.1,1.3c0.3,0.7,0.9,1.3,1.3,2c0.3,0.6,0.4,1.3,0.1,1.9c-0.4,0.9-1.2,1.6-2,2.1c-0.1,0.1-0.2,0.2-0.3,0.2
		c0.5-0.5,1-1.2,1-1.9c0-0.6-0.3-1.1-0.7-1.5c-0.7-0.9-1.4-2-1.2-3.2C40.7,25.2,41.6,24.2,42.5,23.5L42.5,23.5L42.5,23.5z"/>
	<path id="XMLID_40_" class="st7" d="M47.7,32.2c0.3-0.4,0.8-0.5,1.3-0.5c0.8-0.1,1.7,0.1,2.3,0.6c0.5,0.4,0.8,1.1,0.7,1.8
		c-0.1,0.8-0.6,1.4-1.2,1.9c-1.1,0.9-2.4,1.4-3.7,1.7c0.1-0.1,0.2-0.2,0.3-0.2c1-0.5,2-1.2,2.7-2c0.4-0.5,0.8-1.3,0.6-2
		c-0.2-0.8-1-1.4-1.8-1.5C48.5,32,48.1,32.2,47.7,32.2L47.7,32.2L47.7,32.2z"/>
	<path id="XMLID_39_" class="st8" d="M47.7,32.2c0.3-0.4,0.8-0.5,1.3-0.5c0.8-0.1,1.7,0.1,2.3,0.6c0.5,0.4,0.8,1.1,0.7,1.8
		c-0.1,0.8-0.6,1.4-1.2,1.9c-1.1,0.9-2.4,1.4-3.7,1.7c0.1-0.1,0.2-0.2,0.3-0.2c1-0.5,2-1.2,2.7-2c0.4-0.5,0.8-1.3,0.6-2
		c-0.2-0.8-1-1.4-1.8-1.5C48.5,32,48.1,32.2,47.7,32.2L47.7,32.2L47.7,32.2z"/>
	<path id="XMLID_38_" class="st7" d="M32.5,32.9c1.4-0.6,2.9-1,4.4-1c-0.9,0.3-1.8,0.5-2.6,0.9c-0.2,0.1-0.4,0.2-0.5,0.4
		c-0.1,0.2,0.1,0.3,0.2,0.3c0.5,0.2,1.1,0.2,1.6,0.3c1.9,0.1,3.9,0.1,5.8-0.1c1.9-0.1,3.8-0.4,5.7-0.7c-0.4,0.2-0.8,0.4-1.2,0.6
		c-0.2,0.1-0.4,0.2-0.7,0.2c-2.3,0.5-4.7,0.7-7,0.7c-0.9,0-1.8,0-2.7-0.1c-1-0.1-2-0.1-3-0.4c-0.3-0.1-0.6-0.2-0.8-0.4
		c-0.1-0.1-0.1-0.3,0-0.4C31.9,33.2,32.2,33.1,32.5,32.9L32.5,32.9L32.5,32.9z"/>
	<path id="XMLID_37_" class="st8" d="M32.5,32.9c1.4-0.6,2.9-1,4.4-1c-0.9,0.3-1.8,0.5-2.6,0.9c-0.2,0.1-0.4,0.2-0.5,0.4
		c-0.1,0.2,0.1,0.3,0.2,0.3c0.5,0.2,1.1,0.2,1.6,0.3c1.9,0.1,3.9,0.1,5.8-0.1c1.9-0.1,3.8-0.4,5.7-0.7c-0.4,0.2-0.8,0.4-1.2,0.6
		c-0.2,0.1-0.4,0.2-0.7,0.2c-2.3,0.5-4.7,0.7-7,0.7c-0.9,0-1.8,0-2.7-0.1c-1-0.1-2-0.1-3-0.4c-0.3-0.1-0.6-0.2-0.8-0.4
		c-0.1-0.1-0.1-0.3,0-0.4C31.9,33.2,32.2,33.1,32.5,32.9L32.5,32.9L32.5,32.9z"/>
	<path id="XMLID_36_" class="st7" d="M34.3,36.2c0.4-0.3,0.9-0.5,1.3-0.6c-0.2,0.2-0.4,0.4-0.4,0.6c0,0.2,0.1,0.3,0.2,0.4
		c0.2,0.1,0.5,0.2,0.8,0.2c1.5,0.2,2.9,0.2,4.4,0.1c1.3-0.1,2.7-0.3,4-0.5c0.4,0.3,0.8,0.6,1.2,0.8c-1.6,0.5-3.2,0.7-4.9,0.9
		c-1.6,0.1-3.1,0.1-4.7-0.2c-0.6-0.1-1.2-0.2-1.8-0.5c-0.2-0.1-0.5-0.3-0.6-0.5C34,36.5,34.1,36.3,34.3,36.2L34.3,36.2L34.3,36.2z"
		/>
	<path id="XMLID_35_" class="st8" d="M34.3,36.2c0.4-0.3,0.9-0.5,1.3-0.6c-0.2,0.2-0.4,0.4-0.4,0.6c0,0.2,0.1,0.3,0.2,0.4
		c0.2,0.1,0.5,0.2,0.8,0.2c1.5,0.2,2.9,0.2,4.4,0.1c1.3-0.1,2.7-0.3,4-0.5c0.4,0.3,0.8,0.6,1.2,0.8c-1.6,0.5-3.2,0.7-4.9,0.9
		c-1.6,0.1-3.1,0.1-4.7-0.2c-0.6-0.1-1.2-0.2-1.8-0.5c-0.2-0.1-0.5-0.3-0.6-0.5C34,36.5,34.1,36.3,34.3,36.2L34.3,36.2L34.3,36.2z"
		/>
	<path id="XMLID_34_" class="st7" d="M35.2,39.5c0.3-0.3,0.8-0.4,1.2-0.5c-0.1,0.1-0.4,0.3-0.3,0.5c0.2,0.3,0.6,0.3,0.9,0.4
		c1.3,0.2,2.6,0.3,3.8,0.2c1-0.1,1.9-0.2,2.9-0.4c0.5,0.3,1.1,0.6,1.7,0.8c-0.9,0.4-1.9,0.7-2.8,0.8c-1.6,0.3-3.3,0.3-4.9,0.1
		c-0.7-0.1-1.5-0.3-2.1-0.6c-0.2-0.1-0.5-0.3-0.6-0.6C34.9,39.8,35,39.6,35.2,39.5L35.2,39.5L35.2,39.5z"/>
	<path id="XMLID_33_" class="st8" d="M35.2,39.5c0.3-0.3,0.8-0.4,1.2-0.5c-0.1,0.1-0.4,0.3-0.3,0.5c0.2,0.3,0.6,0.3,0.9,0.4
		c1.3,0.2,2.6,0.3,3.8,0.2c1-0.1,1.9-0.2,2.9-0.4c0.5,0.3,1.1,0.6,1.7,0.8c-0.9,0.4-1.9,0.7-2.8,0.8c-1.6,0.3-3.3,0.3-4.9,0.1
		c-0.7-0.1-1.5-0.3-2.1-0.6c-0.2-0.1-0.5-0.3-0.6-0.6C34.9,39.8,35,39.6,35.2,39.5L35.2,39.5L35.2,39.5z"/>
	<path id="XMLID_32_" class="st7" d="M31,41.6c0.7-0.2,1.4-0.4,2.1-0.4c0.3,0,0.6,0,0.9,0.2c-0.9,0.1-1.8,0.3-2.5,0.7
		c-0.2,0.1-0.4,0.2-0.4,0.4c0,0.2,0.3,0.3,0.4,0.4c1.1,0.4,2.3,0.5,3.4,0.7c3.4,0.3,6.9,0.2,10.3-0.1c1.3-0.1,2.6-0.3,3.8-0.6
		c0.4-0.1,0.9-0.3,1.1-0.6c0.2-0.2,0.1-0.5-0.1-0.7c0.3,0.1,0.6,0.3,0.6,0.7c-0.1,0.4-0.5,0.6-0.8,0.7c-1,0.5-2,0.7-3.1,1
		c-3.1,0.6-6.2,0.7-9.4,0.6c-2.4-0.1-4.7-0.3-7-0.7c-0.4-0.1-0.9-0.2-1.2-0.5c-0.2-0.2,0-0.5,0.2-0.7C29.8,42.1,30.4,41.8,31,41.6
		L31,41.6L31,41.6z"/>
	<path id="XMLID_31_" class="st8" d="M31,41.6c0.7-0.2,1.4-0.4,2.1-0.4c0.3,0,0.6,0,0.9,0.2c-0.9,0.1-1.8,0.3-2.5,0.7
		c-0.2,0.1-0.4,0.2-0.4,0.4c0,0.2,0.3,0.3,0.4,0.4c1.1,0.4,2.3,0.5,3.4,0.7c3.4,0.3,6.9,0.2,10.3-0.1c1.3-0.1,2.6-0.3,3.8-0.6
		c0.4-0.1,0.9-0.3,1.1-0.6c0.2-0.2,0.1-0.5-0.1-0.7c0.3,0.1,0.6,0.3,0.6,0.7c-0.1,0.4-0.5,0.6-0.8,0.7c-1,0.5-2,0.7-3.1,1
		c-3.1,0.6-6.2,0.7-9.4,0.6c-2.4-0.1-4.7-0.3-7-0.7c-0.4-0.1-0.9-0.2-1.2-0.5c-0.2-0.2,0-0.5,0.2-0.7C29.8,42.1,30.4,41.8,31,41.6
		L31,41.6L31,41.6z"/>
	<path id="XMLID_30_" class="st7" d="M49.8,44.2c0.8-0.3,1.6-0.5,2.1-1.1c-0.1,0.7-0.7,1.1-1.2,1.4c-1.1,0.6-2.3,0.8-3.5,1
		c-2.5,0.4-5.1,0.5-7.6,0.5c-1.7-0.1-3.5-0.1-5.2-0.5c-0.4-0.1-0.8-0.2-1.2-0.4c1.5,0.3,3.1,0.4,4.6,0.4c2.5,0.1,5.1,0,7.6-0.3
		C46.9,44.9,48.4,44.6,49.8,44.2L49.8,44.2L49.8,44.2z"/>
	<path id="XMLID_29_" class="st8" d="M49.8,44.2c0.8-0.3,1.6-0.5,2.1-1.1c-0.1,0.7-0.7,1.1-1.2,1.4c-1.1,0.6-2.3,0.8-3.5,1
		c-2.5,0.4-5.1,0.5-7.6,0.5c-1.7-0.1-3.5-0.1-5.2-0.5c-0.4-0.1-0.8-0.2-1.2-0.4c1.5,0.3,3.1,0.4,4.6,0.4c2.5,0.1,5.1,0,7.6-0.3
		C46.9,44.9,48.4,44.6,49.8,44.2L49.8,44.2L49.8,44.2z"/>
	<path id="XMLID_28_" class="st3" d="M29.9,55.4c0-2.5,0-5,0-7.4c0.5,0,1,0,1.5,0c0,2.8,0,5.6,0,8.3c0,0.8,0,1.6-0.4,2.3
		c-0.4,0.7-1.2,1.3-1.9,1.6c-0.2-0.3-0.5-0.6-0.7-0.8l0,0c0.6-0.4,1.3-0.9,1.4-1.7C29.9,56.9,29.9,56.1,29.9,55.4L29.9,55.4
		L29.9,55.4z"/>
	<g class="st4">
		<defs>
			<rect id="XMLID_26_" x="28.4" y="14.9" width="24.3" height="45.3"/>
		</defs>
		<clipPath id="XMLID_66_">
			<use xlink:href="#XMLID_26_"  style="overflow:visible;"/>
		</clipPath>
		<path id="XMLID_27_" class="st9" d="M29.9,55.4c0-2.5,0-5,0-7.4c0.5,0,1,0,1.5,0c0,2.8,0,5.6,0,8.3c0,0.8,0,1.6-0.4,2.3
			c-0.4,0.7-1.2,1.3-1.9,1.6c-0.2-0.3-0.5-0.6-0.7-0.8l0,0c0.6-0.4,1.3-0.9,1.4-1.7C29.9,56.9,29.9,56.1,29.9,55.4L29.9,55.4
			L29.9,55.4z"/>
	</g>
	<path class="st3" d="M34.8,54.4c-0.3,0.1-0.6,0.3-0.7,0.7c-0.1,0.4-0.1,0.8,0.2,1.2c0.2,0.3,0.7,0.4,1.1,0.3c0.5-0.1,1-0.4,1.4-0.7
		c0-0.6,0-1.1,0-1.7C36,54.3,35.4,54.2,34.8,54.4L34.8,54.4L34.8,54.4z M32.9,50.9c1-0.4,2.2-0.7,3.3-0.5c0.6,0.1,1.2,0.3,1.5,0.7
		c0.3,0.4,0.4,0.9,0.4,1.4c0,1.7,0,3.4,0,5.1c-0.4,0-0.8,0-1.1,0c0-0.2-0.1-0.5-0.1-0.8c-0.4,0.3-0.9,0.7-1.4,0.8
		c-0.6,0.2-1.3,0.1-1.9-0.1c-0.5-0.2-0.8-0.6-1-1.1c-0.2-0.7-0.1-1.5,0.4-2.1c0.4-0.5,1.1-0.8,1.8-0.9c0.6-0.1,1.2-0.1,1.9-0.1
		c0-0.5,0.1-1-0.2-1.4c-0.2-0.3-0.6-0.5-1-0.5c-0.8-0.1-1.6,0.1-2.4,0.4C33,51.5,32.9,51.2,32.9,50.9"/>
	<path class="st6" d="M34.8,54.4c-0.3,0.1-0.6,0.3-0.7,0.7c-0.1,0.4-0.1,0.8,0.2,1.2c0.2,0.3,0.7,0.4,1.1,0.3c0.5-0.1,1-0.4,1.4-0.7
		c0-0.6,0-1.1,0-1.7C36,54.3,35.4,54.2,34.8,54.4L34.8,54.4L34.8,54.4z M32.9,50.9c1-0.4,2.2-0.7,3.3-0.5c0.6,0.1,1.2,0.3,1.5,0.7
		c0.3,0.4,0.4,0.9,0.4,1.4c0,1.7,0,3.4,0,5.1c-0.4,0-0.8,0-1.1,0c0-0.2-0.1-0.5-0.1-0.8c-0.4,0.3-0.9,0.7-1.4,0.8
		c-0.6,0.2-1.3,0.1-1.9-0.1c-0.5-0.2-0.8-0.6-1-1.1c-0.2-0.7-0.1-1.5,0.4-2.1c0.4-0.5,1.1-0.8,1.8-0.9c0.6-0.1,1.2-0.1,1.9-0.1
		c0-0.5,0.1-1-0.2-1.4c-0.2-0.3-0.6-0.5-1-0.5c-0.8-0.1-1.6,0.1-2.4,0.4C33,51.5,32.9,51.2,32.9,50.9"/>
	<path class="st3" d="M48,54.4c-0.3,0.1-0.6,0.3-0.7,0.7c-0.1,0.4-0.1,0.8,0.2,1.2c0.2,0.3,0.7,0.4,1.1,0.3c0.5-0.1,1-0.4,1.4-0.7
		c0-0.6,0-1.1,0-1.7C49.3,54.3,48.6,54.2,48,54.4L48,54.4L48,54.4z M46.2,50.9c1-0.4,2.2-0.7,3.3-0.5c0.6,0.1,1.1,0.3,1.5,0.7
		c0.3,0.4,0.5,1,0.4,1.5c0,1.7,0,3.3,0,5c-0.4,0-0.8,0-1.1,0c0-0.3-0.1-0.5-0.1-0.8c-0.5,0.5-1.2,0.8-1.9,0.9
		c-0.7,0.1-1.4,0-1.9-0.5c-0.5-0.5-0.6-1.3-0.5-2c0.1-0.6,0.6-1.2,1.2-1.4c0.9-0.4,1.9-0.5,2.9-0.5c0-0.5,0.1-1-0.2-1.4
		c-0.2-0.3-0.6-0.5-0.9-0.5c-0.8-0.1-1.7,0.1-2.5,0.4C46.3,51.5,46.2,51.2,46.2,50.9"/>
	<path class="st6" d="M48,54.4c-0.3,0.1-0.6,0.3-0.7,0.7c-0.1,0.4-0.1,0.8,0.2,1.2c0.2,0.3,0.7,0.4,1.1,0.3c0.5-0.1,1-0.4,1.4-0.7
		c0-0.6,0-1.1,0-1.7C49.3,54.3,48.6,54.2,48,54.4L48,54.4L48,54.4z M46.2,50.9c1-0.4,2.2-0.7,3.3-0.5c0.6,0.1,1.1,0.3,1.5,0.7
		c0.3,0.4,0.5,1,0.4,1.5c0,1.7,0,3.3,0,5c-0.4,0-0.8,0-1.1,0c0-0.3-0.1-0.5-0.1-0.8c-0.5,0.5-1.2,0.8-1.9,0.9
		c-0.7,0.1-1.4,0-1.9-0.5c-0.5-0.5-0.6-1.3-0.5-2c0.1-0.6,0.6-1.2,1.2-1.4c0.9-0.4,1.9-0.5,2.9-0.5c0-0.5,0.1-1-0.2-1.4
		c-0.2-0.3-0.6-0.5-0.9-0.5c-0.8-0.1-1.7,0.1-2.5,0.4C46.3,51.5,46.2,51.2,46.2,50.9"/>
	<path id="XMLID_17_" class="st3" d="M39,50.5c0.5,0,1.1,0,1.6,0c0.3,1,0.6,2,0.9,3c0.2,0.6,0.4,1.2,0.5,1.8
		c0.1,0.3,0.1,0.6,0.2,0.8c0.6-1.8,1.1-3.7,1.4-5.7c0.5,0,1,0,1.5,0c-0.4,2.4-1.1,4.9-2.2,7.1c-0.6,0-1.2,0-1.8,0
		C40.4,55.2,39.7,52.8,39,50.5L39,50.5L39,50.5z"/>
	<path id="XMLID_16_" class="st6" d="M39,50.5c0.5,0,1.1,0,1.6,0c0.3,1,0.6,2,0.9,3c0.2,0.6,0.4,1.2,0.5,1.8
		c0.1,0.3,0.1,0.6,0.2,0.8c0.6-1.8,1.1-3.7,1.4-5.7c0.5,0,1,0,1.5,0c-0.4,2.4-1.1,4.9-2.2,7.1c-0.6,0-1.2,0-1.8,0
		C40.4,55.2,39.7,52.8,39,50.5L39,50.5L39,50.5z"/>
	<polygon id="XMLID_15_" class="st3" points="51.7,50.3 51.5,50.3 51.5,50.3 52,50.3 52,50.3 51.8,50.3 51.8,50.9 51.7,50.9 
		51.7,50.3 	"/>
	<polygon id="XMLID_14_" class="st6" points="51.7,50.3 51.5,50.3 51.5,50.3 52,50.3 52,50.3 51.8,50.3 51.8,50.9 51.7,50.9 
		51.7,50.3 	"/>
	<path id="XMLID_13_" class="st3" d="M52.5,50.6c0-0.1,0-0.2,0-0.3h0C52.5,50.4,52.5,50.5,52.5,50.6l-0.2,0.3h-0.1l-0.1-0.3
		c0-0.1-0.1-0.2-0.1-0.2h0c0,0.1,0,0.2,0,0.3l0,0.3H52l0-0.6h0.1l0.1,0.3c0,0.1,0,0.1,0.1,0.2h0c0-0.1,0-0.1,0.1-0.2l0.1-0.3h0.1
		l0,0.6h-0.1L52.5,50.6L52.5,50.6z"/>
	<g class="st4">
		<path id="XMLID_12_" class="st10" d="M52.5,50.6c0-0.1,0-0.2,0-0.3h0C52.5,50.4,52.5,50.5,52.5,50.6l-0.2,0.3h-0.1l-0.1-0.3
			c0-0.1-0.1-0.2-0.1-0.2h0c0,0.1,0,0.2,0,0.3l0,0.3H52l0-0.6h0.1l0.1,0.3c0,0.1,0,0.1,0.1,0.2h0c0-0.1,0-0.1,0.1-0.2l0.1-0.3h0.1
			l0,0.6h-0.1L52.5,50.6L52.5,50.6z"/>
	</g>
</g>
<g id="XMLID_10_">
	<path id="XMLID_63_" class="st11" d="M43.3,19.2c0.8,0.9,1.1,2.3,0.9,3.5c-0.3,1.4-1,2.6-1.9,3.6c-0.7,0.8-1.5,1.6-2.4,2.3
		c-1,0.8-2,1.7-2.6,2.8c-0.5,0.9-0.7,2-0.3,3c0.6,1.7,2,3,2.7,4.6c-0.8-0.7-1.6-1.5-2.4-2.3c-0.8-0.8-1.5-1.7-2-2.8
		c-0.3-0.7-0.5-1.6-0.2-2.4c0.3-0.8,0.8-1.4,1.4-2c1.6-1.6,3.6-2.8,5.1-4.4c0.9-0.9,1.6-2,1.8-3.2C43.6,21,43.5,20.1,43.3,19.2
		L43.3,19.2L43.3,19.2z"/>
	<g>
		<defs>
			<rect id="XMLID_61_" x="25.5" y="19.2" width="28.3" height="52.7"/>
		</defs>
		<clipPath id="XMLID_67_">
			<use xlink:href="#XMLID_61_"  style="overflow:visible;"/>
		</clipPath>
		<path id="XMLID_62_" class="st12" d="M43.3,19.2c0.8,0.9,1.1,2.3,0.9,3.5c-0.3,1.4-1,2.6-1.9,3.6c-0.7,0.8-1.5,1.6-2.4,2.3
			c-1,0.8-2,1.7-2.6,2.8c-0.5,0.9-0.7,2-0.3,3c0.6,1.7,2,3,2.7,4.6c-0.8-0.7-1.6-1.5-2.4-2.3c-0.8-0.8-1.5-1.7-2-2.8
			c-0.3-0.7-0.5-1.6-0.2-2.4c0.3-0.8,0.8-1.4,1.4-2c1.6-1.6,3.6-2.8,5.1-4.4c0.9-0.9,1.6-2,1.8-3.2C43.6,21,43.5,20.1,43.3,19.2
			L43.3,19.2L43.3,19.2z"/>
	</g>
	<path id="XMLID_60_" class="st11" d="M42,29.2c1.7-1.3,3.7-2.1,5.7-2.6c-1.6,1-3.3,2-4.7,3.3c-0.5,0.5-1,1-1.2,1.7
		c-0.2,0.5-0.1,1.1,0.1,1.5c0.4,0.8,1,1.5,1.5,2.3c0.4,0.7,0.5,1.5,0.2,2.2c-0.5,1-1.4,1.8-2.3,2.4c-0.1,0.1-0.2,0.2-0.4,0.2
		c0.6-0.6,1.1-1.4,1.1-2.3c0-0.7-0.4-1.2-0.8-1.7c-0.9-1-1.6-2.4-1.5-3.8C39.9,31.2,40.9,30,42,29.2L42,29.2L42,29.2z"/>
	<path id="XMLID_59_" class="st10" d="M42,29.2c1.7-1.3,3.7-2.1,5.7-2.6c-1.6,1-3.3,2-4.7,3.3c-0.5,0.5-1,1-1.2,1.7
		c-0.2,0.5-0.1,1.1,0.1,1.5c0.4,0.8,1,1.5,1.5,2.3c0.4,0.7,0.5,1.5,0.2,2.2c-0.5,1-1.4,1.8-2.3,2.4c-0.1,0.1-0.2,0.2-0.4,0.2
		c0.6-0.6,1.1-1.4,1.1-2.3c0-0.7-0.4-1.2-0.8-1.7c-0.9-1-1.6-2.4-1.5-3.8C39.9,31.2,40.9,30,42,29.2L42,29.2L42,29.2z"/>
	<path id="XMLID_58_" class="st13" d="M48,39.4c0.4-0.4,1-0.6,1.5-0.6c0.9-0.1,1.9,0.1,2.6,0.8c0.6,0.5,0.9,1.3,0.8,2.1
		c-0.1,0.9-0.7,1.7-1.4,2.2c-1.2,1-2.8,1.6-4.3,2c0.1-0.1,0.2-0.2,0.3-0.3c1.2-0.6,2.3-1.4,3.2-2.4c0.5-0.6,0.9-1.5,0.8-2.3
		c-0.2-1-1.1-1.7-2.1-1.7C48.9,39.1,48.5,39.3,48,39.4L48,39.4L48,39.4z"/>
	<path id="XMLID_57_" class="st14" d="M48,39.4c0.4-0.4,1-0.6,1.5-0.6c0.9-0.1,1.9,0.1,2.6,0.8c0.6,0.5,0.9,1.3,0.8,2.1
		c-0.1,0.9-0.7,1.7-1.4,2.2c-1.2,1-2.8,1.6-4.3,2c0.1-0.1,0.2-0.2,0.3-0.3c1.2-0.6,2.3-1.4,3.2-2.4c0.5-0.6,0.9-1.5,0.8-2.3
		c-0.2-1-1.1-1.7-2.1-1.7C48.9,39.1,48.5,39.3,48,39.4L48,39.4L48,39.4z"/>
	<path id="XMLID_56_" class="st13" d="M30.3,40.2c1.6-0.7,3.4-1.1,5.1-1.1c-1,0.3-2.1,0.6-3.1,1c-0.2,0.1-0.5,0.2-0.6,0.5
		c-0.1,0.2,0.1,0.3,0.3,0.4c0.6,0.2,1.3,0.3,1.9,0.3c2.3,0.1,4.5,0.1,6.8-0.1c2.2-0.1,4.4-0.4,6.6-0.8c-0.5,0.2-1,0.5-1.4,0.7
		c-0.2,0.2-0.5,0.2-0.8,0.3c-2.7,0.6-5.5,0.8-8.2,0.8c-1.1,0-2.1,0-3.2-0.1c-1.2-0.1-2.4-0.2-3.5-0.5c-0.3-0.1-0.7-0.2-0.9-0.4
		c-0.1-0.1-0.1-0.3,0-0.4C29.6,40.5,30,40.4,30.3,40.2L30.3,40.2L30.3,40.2z"/>
	<path id="XMLID_55_" class="st14" d="M30.3,40.2c1.6-0.7,3.4-1.1,5.1-1.1c-1,0.3-2.1,0.6-3.1,1c-0.2,0.1-0.5,0.2-0.6,0.5
		c-0.1,0.2,0.1,0.3,0.3,0.4c0.6,0.2,1.3,0.3,1.9,0.3c2.3,0.1,4.5,0.1,6.8-0.1c2.2-0.1,4.4-0.4,6.6-0.8c-0.5,0.2-1,0.5-1.4,0.7
		c-0.2,0.2-0.5,0.2-0.8,0.3c-2.7,0.6-5.5,0.8-8.2,0.8c-1.1,0-2.1,0-3.2-0.1c-1.2-0.1-2.4-0.2-3.5-0.5c-0.3-0.1-0.7-0.2-0.9-0.4
		c-0.1-0.1-0.1-0.3,0-0.4C29.6,40.5,30,40.4,30.3,40.2L30.3,40.2L30.3,40.2z"/>
	<path id="XMLID_54_" class="st13" d="M32.4,44c0.5-0.4,1-0.6,1.5-0.8c-0.2,0.2-0.4,0.4-0.4,0.7c0,0.2,0.1,0.3,0.3,0.4
		c0.3,0.1,0.6,0.2,0.9,0.2c1.7,0.2,3.4,0.3,5.1,0.2c1.6-0.1,3.1-0.3,4.6-0.6c0.4,0.4,0.9,0.7,1.5,0.9c-1.9,0.5-3.8,0.9-5.7,1
		c-1.8,0.1-3.7,0.1-5.5-0.2c-0.7-0.1-1.4-0.3-2.1-0.6c-0.3-0.1-0.6-0.3-0.6-0.6C32,44.3,32.2,44.1,32.4,44L32.4,44L32.4,44z"/>
	<path id="XMLID_53_" class="st14" d="M32.4,44c0.5-0.4,1-0.6,1.5-0.8c-0.2,0.2-0.4,0.4-0.4,0.7c0,0.2,0.1,0.3,0.3,0.4
		c0.3,0.1,0.6,0.2,0.9,0.2c1.7,0.2,3.4,0.3,5.1,0.2c1.6-0.1,3.1-0.3,4.6-0.6c0.4,0.4,0.9,0.7,1.5,0.9c-1.9,0.5-3.8,0.9-5.7,1
		c-1.8,0.1-3.7,0.1-5.5-0.2c-0.7-0.1-1.4-0.3-2.1-0.6c-0.3-0.1-0.6-0.3-0.6-0.6C32,44.3,32.2,44.1,32.4,44L32.4,44L32.4,44z"/>
	<path id="XMLID_52_" class="st13" d="M33.4,47.8c0.4-0.3,0.9-0.5,1.4-0.6c-0.2,0.1-0.4,0.3-0.3,0.6c0.2,0.3,0.7,0.3,1,0.4
		c1.5,0.2,3,0.3,4.5,0.2c1.1-0.1,2.2-0.3,3.3-0.5c0.6,0.4,1.3,0.7,2,1c-1,0.5-2.2,0.8-3.3,1c-1.9,0.3-3.8,0.4-5.7,0.1
		c-0.8-0.1-1.7-0.3-2.4-0.8c-0.3-0.2-0.6-0.4-0.7-0.7C33.1,48.2,33.2,48,33.4,47.8L33.4,47.8L33.4,47.8z"/>
	<path id="XMLID_51_" class="st14" d="M33.4,47.8c0.4-0.3,0.9-0.5,1.4-0.6c-0.2,0.1-0.4,0.3-0.3,0.6c0.2,0.3,0.7,0.3,1,0.4
		c1.5,0.2,3,0.3,4.5,0.2c1.1-0.1,2.2-0.3,3.3-0.5c0.6,0.4,1.3,0.7,2,1c-1,0.5-2.2,0.8-3.3,1c-1.9,0.3-3.8,0.4-5.7,0.1
		c-0.8-0.1-1.7-0.3-2.4-0.8c-0.3-0.2-0.6-0.4-0.7-0.7C33.1,48.2,33.2,48,33.4,47.8L33.4,47.8L33.4,47.8z"/>
	<path id="XMLID_50_" class="st13" d="M28.6,50.3c0.8-0.3,1.6-0.5,2.5-0.5c0.3,0,0.7,0,1,0.2c-1,0.1-2,0.3-3,0.8
		c-0.2,0.1-0.4,0.2-0.5,0.5c0,0.3,0.3,0.4,0.5,0.4c1.3,0.5,2.6,0.6,4,0.8c4,0.3,8,0.2,12-0.1c1.5-0.2,3-0.3,4.5-0.7
		c0.5-0.2,1-0.3,1.3-0.7c0.2-0.2,0.1-0.6-0.1-0.8c0.3,0.2,0.7,0.4,0.7,0.8c-0.1,0.4-0.5,0.6-0.9,0.8c-1.1,0.6-2.4,0.9-3.6,1.1
		c-3.6,0.7-7.2,0.9-10.9,0.8c-2.7-0.1-5.5-0.4-8.2-0.8c-0.5-0.1-1-0.2-1.4-0.6c-0.2-0.3,0-0.6,0.2-0.8
		C27.2,50.8,27.9,50.5,28.6,50.3L28.6,50.3L28.6,50.3z"/>
	<path id="XMLID_49_" class="st14" d="M28.6,50.3c0.8-0.3,1.6-0.5,2.5-0.5c0.3,0,0.7,0,1,0.2c-1,0.1-2,0.3-3,0.8
		c-0.2,0.1-0.4,0.2-0.5,0.5c0,0.3,0.3,0.4,0.5,0.4c1.3,0.5,2.6,0.6,4,0.8c4,0.3,8,0.2,12-0.1c1.5-0.2,3-0.3,4.5-0.7
		c0.5-0.2,1-0.3,1.3-0.7c0.2-0.2,0.1-0.6-0.1-0.8c0.3,0.2,0.7,0.4,0.7,0.8c-0.1,0.4-0.5,0.6-0.9,0.8c-1.1,0.6-2.4,0.9-3.6,1.1
		c-3.6,0.7-7.2,0.9-10.9,0.8c-2.7-0.1-5.5-0.4-8.2-0.8c-0.5-0.1-1-0.2-1.4-0.6c-0.2-0.3,0-0.6,0.2-0.8
		C27.2,50.8,27.9,50.5,28.6,50.3L28.6,50.3L28.6,50.3z"/>
	<path id="XMLID_48_" class="st13" d="M50.5,53.3c0.9-0.3,1.8-0.6,2.5-1.3c-0.1,0.8-0.8,1.3-1.4,1.6c-1.2,0.7-2.6,1-4,1.2
		c-2.9,0.5-5.9,0.6-8.9,0.5c-2-0.1-4.1-0.1-6.1-0.6c-0.5-0.1-1-0.2-1.4-0.5c1.8,0.3,3.6,0.4,5.4,0.5c3,0.1,5.9,0,8.9-0.4
		C47.1,54.1,48.8,53.8,50.5,53.3L50.5,53.3L50.5,53.3z"/>
	<path id="XMLID_47_" class="st14" d="M50.5,53.3c0.9-0.3,1.8-0.6,2.5-1.3c-0.1,0.8-0.8,1.3-1.4,1.6c-1.2,0.7-2.6,1-4,1.2
		c-2.9,0.5-5.9,0.6-8.9,0.5c-2-0.1-4.1-0.1-6.1-0.6c-0.5-0.1-1-0.2-1.4-0.5c1.8,0.3,3.6,0.4,5.4,0.5c3,0.1,5.9,0,8.9-0.4
		C47.1,54.1,48.8,53.8,50.5,53.3L50.5,53.3L50.5,53.3z"/>
</g>
</svg>
