<?xml version="1.0" encoding="utf-8"?>
<!-- Generator: Adobe Illustrator 19.0.0, SVG Export Plug-In . SVG Version: 6.00 Build 0)  -->
<svg version="1.1" id="Layer_1" xmlns="http://www.w3.org/2000/svg" xmlns:xlink="http://www.w3.org/1999/xlink" x="0px" y="0px"
	 width="80px" height="80px" viewBox="0 0 80 80" style="enable-background:new 0 0 80 80;" xml:space="preserve">
<style type="text/css">
	.st0{fill:#84FFFF;}
	.st1{fill:#00E5FF;}
	.st2{clip-path:url(#SVGID_2_);fill:#FFFFFF;}
	.st3{clip-path:url(#SVGID_4_);fill:#FFFFFF;}
	.st4{fill:#424242;}
</style>
<circle id="XMLID_5_" class="st0" cx="40" cy="39.9" r="37"/>
<path id="XMLID_6_" class="st1" d="M40,3c20.4,0,37,16.5,37,37S60.5,77,40,77"/>
<g id="XMLID_7_">
	<g>
		<g>
			<defs>
				<rect id="SVGID_1_" x="14.2" y="27.5" width="50.9" height="24.9"/>
			</defs>
			<clipPath id="SVGID_2_">
				<use xlink:href="#SVGID_1_"  style="overflow:visible;"/>
			</clipPath>
			<path class="st2" d="M27.6,39.7c-0.3,1.3-0.7,2.2-1.4,2.8c-0.7,0.5-1.8,0.8-3.3,0.8H21l1.3-6.7h2.3c1.7,0,2.4,0.4,2.7,0.7
				C27.8,37.7,27.8,38.5,27.6,39.7L27.6,39.7z M46.4,46.9l1.7-8.7c0.4-2,0.1-3.4-0.9-4.4c-1-0.9-2.6-1.3-5.1-1.3h-2.9l0.8-4.3
				c0-0.2,0-0.3-0.1-0.5c-0.1-0.1-0.3-0.2-0.4-0.2h-4.1c-0.3,0-0.5,0.2-0.5,0.4L33,37.2c-0.2-1-0.6-1.9-1.2-2.7
				c-1.2-1.4-3.1-2.1-5.6-2.1h-7.9c-0.3,0-0.5,0.2-0.5,0.4l-3.6,18.8c0,0.2,0,0.3,0.1,0.5c0.1,0.1,0.3,0.2,0.4,0.2h4.1
				c0.3,0,0.5-0.2,0.5-0.4l0.9-4.5h3c1.6,0,2.9-0.2,4-0.5s2.1-0.9,2.9-1.8c0.7-0.6,1.3-1.4,1.7-2.1l-0.7,3.7c0,0.2,0,0.3,0.1,0.5
				c0.1,0.1,0.3,0.2,0.4,0.2h4.1c0.3,0,0.5-0.2,0.5-0.4l2-10.3H41c1.2,0,1.5,0.2,1.6,0.3s0.3,0.4,0.1,1.4l-1.6,8.3
				c0,0.2,0,0.3,0.1,0.5c0.1,0.1,0.3,0.2,0.4,0.2h4.1C46.1,47.4,46.4,47.2,46.4,46.9L46.4,46.9z"/>
		</g>
		<g>
			<defs>
				<rect id="SVGID_3_" x="14.2" y="27.5" width="50.9" height="24.9"/>
			</defs>
			<clipPath id="SVGID_4_">
				<use xlink:href="#SVGID_3_"  style="overflow:visible;"/>
			</clipPath>
			<path class="st3" d="M59.5,39.7c-0.3,1.3-0.7,2.2-1.4,2.8c-0.7,0.5-1.8,0.8-3.3,0.8H53l1.3-6.7h2.3c1.7,0,2.4,0.4,2.7,0.7
				C59.7,37.7,59.7,38.5,59.5,39.7L59.5,39.7z M63.7,34.5c-1.2-1.4-3.1-2.1-5.6-2.1h-7.9c-0.3,0-0.5,0.2-0.5,0.4l-3.6,18.8
				c0,0.2,0,0.3,0.1,0.5c0.1,0.1,0.3,0.2,0.4,0.2h4.1c0.3,0,0.5-0.2,0.5-0.4l0.9-4.5h3c1.6,0,2.9-0.2,4-0.5s2.1-0.9,2.9-1.8
				c0.7-0.7,1.3-1.4,1.8-2.2s0.8-1.7,1-2.7C65.3,37.8,64.9,35.9,63.7,34.5L63.7,34.5z"/>
		</g>
	</g>
	<path class="st4" d="M14.7,51.8h4.1l1-5h3.5c1.5,0,2.8-0.2,3.8-0.5s1.9-0.9,2.7-1.6c0.7-0.6,1.2-1.3,1.7-2.1
		c0.4-0.8,0.7-1.6,0.9-2.5c0.4-2.2,0.1-4-1-5.2c-1.1-1.2-2.8-1.9-5.2-1.9h-7.9L14.7,51.8L14.7,51.8z M24.7,36c1.6,0,2.6,0.3,3.1,0.9
		c0.5,0.6,0.6,1.6,0.4,3c-0.3,1.5-0.8,2.5-1.6,3.1c-0.8,0.6-2,0.9-3.7,0.9h-2.5l1.5-7.9H24.7L24.7,36z"/>
	<path id="XMLID_13_" class="st4" d="M35.4,28.1h4.1l-1,5h3.6c2.3,0,3.8,0.4,4.7,1.2s1.1,2.1,0.8,3.9l-1.7,8.7h-4.1l1.6-8.3
		c0.2-0.9,0.1-1.6-0.2-1.9c-0.3-0.3-1-0.5-2-0.5H38l-2.1,10.7h-4.1L35.4,28.1L35.4,28.1z"/>
	<path class="st4" d="M46.6,51.8h4.1l1-5h3.5c1.5,0,2.8-0.2,3.8-0.5s1.9-0.9,2.7-1.6c0.7-0.6,1.2-1.3,1.7-2.1
		c0.4-0.8,0.7-1.6,0.9-2.5c0.4-2.2,0.1-4-1-5.2S60.5,33,58.1,33h-7.9L46.6,51.8L46.6,51.8z M56.6,36c1.6,0,2.6,0.3,3.1,0.9
		c0.5,0.6,0.6,1.6,0.4,3c-0.3,1.5-0.8,2.5-1.6,3.1s-2,0.9-3.7,0.9h-2.5l1.5-7.9H56.6L56.6,36z"/>
</g>
</svg>
