<?xml version="1.0" encoding="utf-8"?>
<!-- Generator: Adobe Illustrator 19.0.0, SVG Export Plug-In . SVG Version: 6.00 Build 0)  -->
<svg version="1.1" id="Layer_1" xmlns="http://www.w3.org/2000/svg" xmlns:xlink="http://www.w3.org/1999/xlink" x="0px" y="0px"
	 width="80px" height="80px" viewBox="0 0 80 80" style="enable-background:new 0 0 80 80;" xml:space="preserve">
<style type="text/css">
	.st0{fill:#EF9A9A;}
	.st1{fill:#9575CD;}
	.st2{fill:#E34E26;}
	.st3{fill:#F1662A;}
	.st4{fill:#2062AF;}
	.st5{fill:#3C9CD7;}
</style>
<circle id="XMLID_5_" class="st0" cx="40" cy="39.9" r="37"/>
<path id="XMLID_6_" class="st1" d="M40,3c20.4,0,37,16.5,37,37s-16.5,37-37,37"/>
<g id="XMLID_7_">
	<polygon id="XMLID_13_" class="st2" points="31.5,57.4 22.5,48.1 35.7,19.8 62.1,35.2 44,60.7 31.5,57.4 	"/>
	<polygon id="XMLID_12_" class="st3" points="43,57.8 58.4,36 47.6,29.7 32.8,55.1 43,57.8 	"/>
</g>
<g id="XMLID_10_">
	<polygon id="XMLID_16_" class="st4" points="58.4,48.3 49.1,57.5 36.4,60.8 18.4,35.1 45.5,19.7 58.4,48.3 	"/>
	<polygon id="XMLID_15_" class="st5" points="33.2,29.6 47.8,55.2 47.8,55.2 37.5,57.9 22.2,35.9 33.2,29.6 	"/>
</g>
</svg>
