<?xml version="1.0" encoding="utf-8"?>
<!-- Generator: Adobe Illustrator 19.0.0, SVG Export Plug-In . SVG Version: 6.00 Build 0)  -->
<svg version="1.1" id="Layer_1" xmlns="http://www.w3.org/2000/svg" xmlns:xlink="http://www.w3.org/1999/xlink" x="0px" y="0px"
	 viewBox="-560.1 378 138.1 45" style="enable-background:new -560.1 378 138.1 45;" xml:space="preserve">
<style type="text/css">
	.st0{fill:none;stroke:#FFFFFF;stroke-width:1.1444;stroke-miterlimit:10;}
	.st1{fill:none;stroke:#FFFFFF;stroke-width:1.2324;stroke-miterlimit:10;}
	.st2{fill:#FFFFFF;}
</style>
<circle id="XMLID_143_" class="st0" cx="-537.7" cy="401.4" r="20.3"/>
<polyline id="XMLID_155_" class="st1" points="-535.1,402.6 -525.7,388.6 -527.5,391.3 -527.5,414 -538.2,398 -537.1,398 
	-547.9,414 -547.9,391.3 -549.7,388.6 -540.2,402.6 "/>
<polyline id="XMLID_156_" class="st1" points="-535.2,409.4 -537.8,409.4 -537.7,409.4 -540.2,409.4 "/>
<g id="XMLID_157_">
	<path id="XMLID_158_" class="st2" d="M-501.9,411l2-14.5l1.1-7.3h1.4l-3.8,24.2h-1.4l-2.9-21.7l-3.1,21.7h-1.4l-3.6-24.2h1.3l1,7.4
		l2,14.4l2-14.5l1.1-7.3h1.4l0.9,7.3L-501.9,411z"/>
	<path id="XMLID_160_" class="st2" d="M-489.6,413.5v-24.1h6.9v1.1h-5.7v10h5.2v1.2h-5.2v10.6h5.9v1.2
		C-482.5,413.5-489.6,413.5-489.6,413.5z"/>
	<path id="XMLID_162_" class="st2" d="M-474.2,413.5v-24.2h3.9c0.8,0,1.4,0.2,1.8,0.7c0.4,0.4,0.7,1.2,1,2.3
		c0.2,1.1,0.4,2.3,0.4,3.6c0,1.7-0.2,3.2-0.6,4.3c-0.4,1.2-1,1.9-1.9,2.2c0.3,0.4,0.5,0.8,0.7,1.2c0.3,0.9,0.7,1.9,1,3.2l1.5,6.6
		h-1.5l-1.2-5.1c-0.3-1.5-0.6-2.6-0.8-3.3c-0.2-0.8-0.4-1.3-0.6-1.6c-0.2-0.3-0.3-0.5-0.5-0.6c-0.1-0.1-0.3-0.1-0.6-0.1h-1.4v10.8
		H-474.2z M-473.1,401.8h2.2c0.7-0.1,1.2-0.4,1.5-0.9c0.3-0.5,0.5-1.1,0.7-2c0.2-0.8,0.3-1.9,0.4-3.1c0-1.7-0.2-3-0.5-4.1
		c-0.3-1-1-1.6-2.2-1.7h-2v11.8H-473.1z"/>
	<path id="XMLID_165_" class="st2" d="M-457.8,401.7v8.6v3.3h-1.2V406v-6.4v-6.7v-1v-2.5h1.2v8.6v1v1.4h4.8v-1.7v-1.8v-4.4v-3.2h1.1
		v7.6v5v8v3.6h-1.3v-10.3v-1.5h-1.4H-457.8z"/>
	<path id="XMLID_167_" class="st2" d="M-444.4,413.5v-24.2h3.9c0.8,0,1.4,0.2,1.8,0.7c0.4,0.4,0.7,1.2,1,2.3
		c0.2,1.1,0.4,2.3,0.4,3.6c0,1.7-0.2,3.2-0.6,4.3c-0.4,1.2-1,1.9-1.9,2.2c0.3,0.4,0.5,0.8,0.7,1.2c0.3,0.9,0.7,1.9,1,3.2l1.5,6.6
		h-1.5l-1.2-5.1c-0.3-1.5-0.6-2.6-0.8-3.3c-0.2-0.8-0.4-1.3-0.6-1.6c-0.2-0.3-0.3-0.5-0.5-0.6c-0.1-0.1-0.3-0.1-0.6-0.1h-1.4v10.8
		H-444.4z M-443.2,401.8h2.2c0.7-0.1,1.2-0.4,1.5-0.9s0.5-1.1,0.7-2c0.2-0.8,0.3-1.9,0.4-3.1c0-1.7-0.2-3-0.5-4.1
		c-0.3-1-1-1.6-2.2-1.7h-2v11.8H-443.2z"/>
</g>
</svg>
