<?xml version="1.0" encoding="utf-8"?>
<!-- Generator: Adobe Illustrator 19.0.0, SVG Export Plug-In . SVG Version: 6.00 Build 0)  -->
<svg version="1.1" id="Layer_1" xmlns="http://www.w3.org/2000/svg" xmlns:xlink="http://www.w3.org/1999/xlink" x="0px" y="0px"
	 width="493px" height="487.1px" viewBox="-233 37.9 493 487.1" style="enable-background:new -233 37.9 493 487.1;"
	 xml:space="preserve">
<style type="text/css">
	.st0{fill:#222222;}
</style>
<g>
	<g>
		<path class="st0" d="M58.1,188.3c18.8,11.9,31.2,31.2,33.7,54.4c7.4,3.7,16.3,5.7,25,5.7c32.6,0,58.9-26.3,58.9-58.9
			s-26.3-58.9-58.9-58.9C84.4,130,58.7,155.9,58.1,188.3L58.1,188.3z M19.3,308.4c32.6,0,58.9-26.3,58.9-58.9s-26.3-58.9-58.9-58.9
			s-58.9,26.3-58.9,58.9C-39.5,282.1-13.3,308.4,19.3,308.4L19.3,308.4z M44.3,312.8h-50c-41.3,0-75,33.7-75,75v61.3v1.2l4.4,1.2
			c39.4,12.4,73.7,16.3,102.6,16.3c55,0,87.6-15.6,89.5-16.9l3.7-1.9h0.7v-61.4C120,346.5,85.6,312.8,44.3,312.8L44.3,312.8z
			 M142,252.1H92.6c-0.7,20-8.7,37.4-22.5,50.7c36.9,11.2,63.8,45,63.8,85.6v18.8c48.7-1.9,77-15.6,78.7-16.3l3.7-1.9h0.7v-61.3
			C216.9,285.8,183.1,252.1,142,252.1L142,252.1z M-83.8,247.7c11.2,0,22.5-3.2,31.2-9.4c3.2-18.8,13.1-35.1,27.5-46.2
			c0-1.2,0-1.9,0-3.2c0-32.6-26.3-58.9-58.9-58.9s-58.9,26.3-58.9,58.9S-116.3,247.7-83.8,247.7L-83.8,247.7z M-30.7,302.1
			c-13.1-12.4-21.8-30.6-22.5-50c-1.9,0-3.7,0-5.7,0h-50c-41.3,0-75,33.7-75,75v61.3v1.2l4.4,1.2c31.9,9.9,60.1,14.4,85.1,15.6
			v-18.8C-94.5,347.9-67.6,313.3-30.7,302.1L-30.7,302.1z"/>
	</g>
</g>
</svg>
