<?xml version="1.0" encoding="utf-8"?>
<!-- Generator: Adobe Illustrator 19.0.0, SVG Export Plug-In . SVG Version: 6.00 Build 0)  -->
<svg version="1.1" id="Layer_1" xmlns="http://www.w3.org/2000/svg" xmlns:xlink="http://www.w3.org/1999/xlink" x="0px" y="0px"
	 width="548px" height="488px" viewBox="-205 37 548 488" style="enable-background:new -205 37 548 488;" xml:space="preserve">
<style type="text/css">
	.st0{fill:#222222;}
</style>
<g>
	<path class="st0" d="M105.1,167.7c-0.5-9.5-9.5-7.9-18.3-7.9C93.3,161.7,99.4,164.5,105.1,167.7L105.1,167.7z"/>
	<path class="st0" d="M11.3,144c-34.1,0-49.7,46.6-22.5,69.9c9.3-26.7,27.7-45.9,52-53.6C34,150.4,23.5,144,11.3,144L11.3,144z"/>
	<path class="st0" d="M-58.9,206.7c1.4,4.8,3.2,9.4,5.3,13.8l-11.1,12c-3,3.3-3,8.5,0,11.7l19.7,21.3c1.5,1.6,3.4,2.5,5.4,2.5
		c2,0,4-0.8,5.4-2.5l11.1-12c1.6,1,3.5,1.6,5.3,2.5c0-0.1,0-0.3,0-0.4c0-9.8,1-19.2,2.9-27.9c-13.5-9.3-22.5-25.6-22.5-44.3
		c0-29,21.8-52.6,48.7-52.6c18.2,0,33.8,10.9,42.3,27c9-1.1,17.4-1.1,27.5,0.8c-1.3-4.4-2.8-8.5-4.8-12.3l11.1-12
		c1.5-1.6,2.3-3.7,2.3-5.9s-0.8-4.4-2.3-5.9l-19.7-21.4c-1.5-1.6-3.5-2.5-5.4-2.5s-3.9,0.8-5.4,2.5l-11.1,12
		c-4-2.3-8.3-4.4-12.9-5.7v-17c0-4.6-3.4-8.3-7.7-8.3H-2.7c-4.3,0-7.7,3.7-7.7,8.3v17c-4.4,1.5-8.7,3.4-12.9,5.7l-11.1-12
		c-1.5-1.6-3.5-2.5-5.4-2.5s-4,0.8-5.4,2.5l-19.7,21.3c-1.5,1.6-2.3,3.7-2.3,5.9s0.8,4.4,2.3,5.9l11.1,12c-2.1,4.4-4,9-5.3,13.9
		h-15.8c-4.3,0-7.7,3.8-7.7,8.3v30.1c0,4.6,3.4,8.3,7.7,8.3L-58.9,206.7L-58.9,206.7z"/>
	<path class="st0" d="M182.4,367.7c12.4-7.4,20.8-21.3,20.8-37.5c0-23.7-17.9-42.9-39.7-42.9c-7.7,0-14.9,2.5-20.9,6.5
		c-3.7,15.7-9.5,30.7-16.9,43.9C146.8,342.1,166.5,352.6,182.4,367.7L182.4,367.7z"/>
	<path class="st0" d="M264.5,314c0-4.9-3.7-9-8.2-9h-17c-1.5-5.2-3.4-10.2-5.7-14.9l12-12.9c1.5-1.6,2.4-4,2.4-6.3
		c0-2.5-0.9-4.6-2.4-6.3l-21.2-22.9c-1.6-1.8-3.8-2.6-5.8-2.6c-2.1,0-4.3,0.8-5.8,2.6l-12.1,12.9c-4.4-2.5-9-4.6-13.7-6.1v-18.4
		c0-4.9-3.7-8.9-8.2-8.9h-30c-2,0-3.8,0.8-5.3,2.2c2.5,9.9,3.9,20.7,3.9,32.3c0,7.4-0.5,14.7-1.5,22.1c5.7-2.2,11.6-3.7,17.9-3.7
		c28.8,0,52.1,25.2,52.1,56.3c0,19.8-9.6,37.2-24,47.2c10.5,12.4,18.8,27.1,24.2,43.6c0.9,0.3,1.9,0.5,2.8,0.5
		c2.1,0,4.3-0.8,5.9-2.6l21.2-22.9c1.5-1.6,2.4-4,2.4-6.3c0-2.5-0.9-4.6-2.4-6.4l-12-12.9c2.3-4.8,4.3-9.7,5.7-14.9h17
		c2.3,0,4.4-1,5.9-2.6c1.5-1.6,2.4-4,2.4-6.3L264.5,314z"/>
	<path class="st0" d="M198.8,429.2c-12.9-41-46.9-69.2-86.3-72.9c-13.2,15.1-29.5,24.7-47.9,24.7s-34.7-9.5-47.9-24.7
		c-39.4,3.8-73.4,32-86.3,72.9l-7.1,22.6c-2,6.5-1,13.8,2.6,19.4c3.7,5.6,9.7,8.9,16,8.9h245.2c6.4,0,12.4-3.4,16.1-8.9
		c3.7-5.6,4.7-12.8,2.6-19.4L198.8,429.2z"/>
	<path class="st0" d="M0.7,255.4c0,50.8,28.6,105.4,64,105.4s64-54.5,64-105.4C128.5,150,0.7,149.9,0.7,255.4L0.7,255.4z"/>
</g>
</svg>
