<?xml version="1.0" encoding="utf-8"?>
<!-- Generator: Adobe Illustrator 19.0.0, SVG Export Plug-In . SVG Version: 6.00 Build 0)  -->
<svg version="1.1" id="Layer_1" xmlns="http://www.w3.org/2000/svg" xmlns:xlink="http://www.w3.org/1999/xlink" x="0px" y="0px"
	 width="80px" height="80px" viewBox="0 0 80 80" style="enable-background:new 0 0 80 80;" xml:space="preserve">
<style type="text/css">
	.st0{fill:#A5D6A7;}
	.st1{fill:#81C784;}
	.st2{fill:#546E7A;}
</style>
<circle id="XMLID_5_" class="st0" cx="40" cy="39.9" r="37"/>
<path id="XMLID_6_" class="st1" d="M40,3c20.4,0,37,16.5,37,37S60.5,77,40,77"/>
<g id="XMLID_10_">
	<path id="XMLID_11_" class="st2" d="M27.7,51.8l2.6,2.6l-1.8,1.9L25,52.9v-9.2l-2.6-2.6v-2.8l2.6-2.6v-9.2l3.5-3.4l1.8,1.9
		l-2.6,2.6v9.2l-3,2.9l3,2.9C27.7,42.6,27.7,51.8,27.7,51.8z"/>
	<path id="XMLID_13_" class="st2" d="M42.8,40.8l2.8,2.3v3.1l-10.3,4.7V27.6l10.3,4.7v5.5l-2.8-1.9v-2L38,31.7v15.1l4.8-2.2V40.8z"
		/>
	<path id="XMLID_15_" class="st2" d="M52.4,42.7l3-2.9l-3-2.9v-9.2l-2.6-2.6l1.9-1.9l3.5,3.4v9.2l2.6,2.6v2.8l-2.6,2.6V53l-3.5,3.4
		l-1.9-1.9l2.6-2.6V42.7z"/>
</g>
</svg>
